<svg version="1.1" xmlns="http://www.w3.org/2000/svg" xmlns:xlink="http://www.w3.org/1999/xlink" x="0px" y="0px" viewBox="0 0 1951.7 870.7" style="enable-background:new 0 0 1951.7 560.7;" xml:space="preserve">
<style type="text/css">
	.st0{fill:none;stroke:#1D1D1B;stroke-width:1.4704;stroke-miterlimit:10;}
	.st1{fill:none;stroke:#1D1D1B;stroke-width:0.9273;stroke-miterlimit:10;}
	.st2{fill:#E5E5E5;stroke:#000000;stroke-miterlimit:10;}
    .st3{fill: black; font-size:14px;font-weight:700;}
	.st4{opacity:0.55;fill:#C0A3D3;stroke:rgb(68, 68, 68);stroke-width:0.75;stroke-miterlimit:10;}
	.st5{fill: black; font-size:15px; font-family:'Lemon/Milk(RUS BY LYAJKA) Regular';}
    .st8{opacity: 0.4;fill:white;stroke:rgb(68, 68, 68);stroke-width:0.75;stroke-miterlimit:10;}
	.st9{opacity:0.58;fill:#912CC6;stroke:rgb(68, 68, 68);stroke-width:0.75;stroke-miterlimit:10;}
    .st11{fill: black; font-size:14px; font-family:'FranklinGothic-Medium';}
	.st12{fill:#7A30A0;}
	.st13{fill:#662482;}
	.st14{fill:#FFFFFF;}
	.st15{fill:#C0A3D3;}
	.st16{fill:#912CC6;}
	.st17{fill:#4D4751;}
	.st18{fill:#8A7D96;stroke:#3C3C3B;stroke-width:2;stroke-miterlimit:10;}
	.st19{fill:#C8A3E5;stroke:#3C3C3B;stroke-width:2;stroke-miterlimit:10;}
	.st20{fill:#A34ADD;stroke:#3C3C3B;stroke-width:2;stroke-miterlimit:10;}
    .st4:hover {
        fill:#9a7baf;
    } 
    .st8:hover {
        fill:rgb(124, 25, 108);
    }
    .st9:hover {
        fill:#6a1597;
    }
    .st18:hover {
        fill: #8c7197;
        stroke:#662482;;
        transform: scale(1.02);
        transform: translate(-10px, 5px);
    } 
    .st19:hover {
        fill:rgb(223, 128, 183);
        stroke:#662482;
        transform: scale(1.02);
        transform: translate(5px, -10px);
    } 
    .st20:hover {
        fill:#9464e7;
        stroke:#662482;
        transform: scale(1.02);
        transform: translate(10px, 5px);
    } 
    .stv{fill:#f03434; opacity:0.7;}
</style>
<g id="Слой_6">
	<text transform="matrix(1 0 0 1 1273.2155 510.3914)" class="st3">Лаб.</text>
	<text transform="matrix(1 0 0 1 1486.4043 510.3914)" class="st3">КФМН</text>
	<text transform="matrix(1 0 0 1 1313.4745 53.3276)" class="st3">Лаб.</text>
	<text transform="matrix(1 0 0 1 1765.9993 53.3276)" class="st3">Лаб.</text>
	<text transform="matrix(1 0 0 1 1871.4924 53.3276)" class="st3">Музей</text>
	<text transform="matrix(1 0 0 1 888.1922 53.3276)" class="st3">Лаб.</text>
	<text transform="matrix(1 0 0 1 640.5423 53.3276)" class="st3">Навч. ауд.</text>
	<text transform="matrix(1 0 0 1 162.771 53.3285)" class="st3">Навч. ауд.</text>
	<text transform="matrix(1 0 0 1 1432.1816 53.3285)" class="st3">Навч. ауд.</text>
	<text transform="matrix(1 0 0 1 1541.7004 53.3285)" class="st3">Студ. рада</text>
	<text transform="matrix(1 0 0 1 1013.2298 53.3276)" class="st3">Лаб.</text>
	<text transform="matrix(1 0 0 1 1865.0618 510.3914)" class="st3">Лаб.</text>
	<text transform="matrix(1 0 0 1 1129.3627 510.3914)" class="st3">Лаб.</text>
	<text transform="matrix(1 0 0 1 887.9637 510.3924)" class="st3">Навч. ауд.</text>
	<text transform="matrix(1 0 0 1 115.3032 510.3914)" class="st3">Навч. ауд.</text>
</g>
<g id="Слой_1">
	<polyline class="st0" points="1896.8,218.4 1907.4,190 1937.5,190 1937.5,369.4 1868,369.4 1857.8,342.3 	"></polyline>
	<polyline class="st0" points="1741.9,369.1 1679.6,369.1 1668.5,343.3 	"></polyline>
	<polyline class="st0" points="1562.5,369.1 1495.7,369.2 1484.2,342.6 	"></polyline>
	<polyline class="st0" points="1473.2,369.2 1412.6,369.2 1401.1,342.6 	"></polyline>
	<polyline class="st0" points="1394.2,369.2 1290.8,369.2 1279.9,342.5 	"></polyline>
	<polyline class="st0" points="1088.6,369.3 1033,369.3 1022.2,342.4 	"></polyline>
	<polyline class="st0" points="1269.9,369.3 1111.2,369.3 1100.4,342.4 	"></polyline>
	<polyline class="st0" points="1015.3,369.3 931.5,369.3 920.8,342.4 	"></polyline>
	<polyline class="st0" points="913.5,369.3 818.5,369.3 807.7,342.4 	"></polyline>
	<polyline class="st0" points="794.4,369.3 714.6,369.3 703.9,342.4 	"></polyline>
	<polyline class="st0" points="696.7,369.3 658.5,369.3 647.7,342.4 	"></polyline>
	<polyline class="st0" points="637.4,369.3 610.9,369.3 610.6,545 346,545 346,369.4 	"></polyline>
	<polyline class="st0" points="346,369.4 317,369.4 306.1,342.6 	"></polyline>
	<polyline class="st0" points="287.4,369.4 111.1,369.4 100.2,342.6 	"></polyline>
	<polyline class="st0" points="38.3,190 17.8,190 17.8,369.4 74.2,369.4 	"></polyline>
	<polyline class="st0" points="173.4,190 74.2,190 63.1,216.8 	"></polyline>
	<polyline class="st0" points="293.4,190 202.1,190 191.2,216.1 	"></polyline>
	<polyline class="st0" points="455.7,190 325,190 313.8,216.8 	"></polyline>
	<line class="st0" x1="639.8" y1="190" x2="501.7" y2="190"></line>
	<polyline class="st0" points="1020.8,190 920.8,190 906.3,216.8 	"></polyline>
	<polyline class="st0" points="1127.2,190 1042.1,190 1030.3,216.8 	"></polyline>
	<polyline class="st0" points="1224.5,190 1157.2,190 1141.6,216 	"></polyline>
	<polyline class="st0" points="1333.3,190 1244.7,190 1233.5,216 	"></polyline>
	<polyline class="st0" points="1452.2,190 1355.5,190 1344,216.8 	"></polyline>
	<polyline class="st0" points="1568.9,190 1475.8,190 1464.8,215.9 	"></polyline>
	<polyline class="st0" points="1649.7,190 1601,190 1589.4,216.8 	"></polyline>
	<polyline class="st0" points="1783.1,190 1676,190 1665.1,216.8 	"></polyline>
	<polyline class="st0" points="1876.5,190 1802.5,190 1791.1,216.8 	"></polyline>
	<path class="st1" d="M346,369.4"></path>
	<rect x="340.1" y="392.5" class="st2" width="10.9" height="64"></rect>
	<rect x="340.1" y="462.8" class="st2" width="10.9" height="64"></rect>
	<g>
		<polyline class="st1" points="1587.5,396.2 1575.9,369.4 1563.5,369.4 1563.5,545 1641.3,545 1641.3,369.4 1629.2,369.4 1617.7,396.2 		"></polyline>
		<line class="st1" x1="1581.7" y1="415.3" x2="1622.8" y2="415.3"></line>
		<line class="st1" x1="1581.7" y1="429.1" x2="1622.8" y2="429.1"></line>
		<line class="st1" x1="1581.7" y1="442.9" x2="1622.8" y2="442.9"></line>
		<line class="st1" x1="1581.7" y1="456.8" x2="1622.8" y2="456.8"></line>
		<line class="st1" x1="1581.7" y1="470.6" x2="1622.8" y2="470.6"></line>
		<line class="st1" x1="1581.7" y1="484.4" x2="1622.8" y2="484.4"></line>
		<line class="st1" x1="1581.7" y1="498.3" x2="1622.8" y2="498.3"></line>
	</g>
	<g>
		<polyline class="st1" points="490.2,163.2 501.7,190 514.1,190 514.1,70.1 443.7,70.1 443.7,190 455.7,190 467.2,163.2 		"></polyline>
		<line class="st1" x1="462.5" y1="81.9" x2="496.9" y2="81.9"></line>
		<line class="st1" x1="462.5" y1="93.4" x2="496.9" y2="93.4"></line>
		<line class="st1" x1="462.5" y1="105" x2="496.9" y2="105"></line>
		<line class="st1" x1="462.5" y1="116.6" x2="496.9" y2="116.6"></line>
		<line class="st1" x1="462.5" y1="128.2" x2="496.9" y2="128.2"></line>
		<line class="st1" x1="462.5" y1="139.7" x2="496.9" y2="139.7"></line>
		<line class="st1" x1="462.5" y1="151.3" x2="496.9" y2="151.3"></line>
	</g>
	<rect x="17.8" y="14.8" class="st0" width="1919.6" height="530.2"></rect>
	<g>
		<rect x="1257.3" y="14.8" class="st4" width="138.3" height="175.2" id="d18" style=""></rect>
		<text transform="matrix(1 0 0 1 1331.2695 179.9094)" class="st5">418</text>
	</g>
	<g>
        <rect x="1171.7" y="14.8" class="st8" width="86.1" height="175.2" id="d16"></rect>
		<text transform="matrix(1 0 0 1 1224.4661 179.9094)" class="st5">416</text>
	</g>
	<g>
        <rect x="1082.9" y="14.8" class="st8" width="88.6" height="175.2" id="d14a"></rect>
		<text transform="matrix(1 0 0 1 1129.4501 179.9089)" class="st5">414A</text>
	</g>
	<g>
		<rect x="965.5" y="14.8" class="st4" width="117.2" height="175.2" id="d14" style=""></rect>
		<text transform="matrix(1 0 0 1 1023.5621 179.9094)" class="st5">414</text>
	</g>
	<g>
		<rect x="829.6" y="14.8" class="st4" width="136" height="175.2" id="d12" style=""></rect>
		<text transform="matrix(1 0 0 1 899.8534 179.9094)" class="st5">412</text>
	</g>
	<g>
        <rect x="744.4" y="14.8" class="st8" width="85" height="175.2" id="d10"></rect>
		<text transform="matrix(1 0 0 1 787.6282 179.9094)" class="st5">410</text>
	</g>
	<g>
        <rect x="605.8" y="14.8" class="st9" width="138.3" height="175.2" id="d8"></rect>
		<text transform="matrix(1 0 0 1 639.7762 179.9094)" class="st5">408</text>
	</g>
	<g>
        <rect x="610.8" y="369.3" class="st8" width="68.4" height="175.6" id="dwc"></rect>
		<text transform="matrix(1 0 0 1 639.2662 388.4069)" class="st5">WC</text>
	</g>
	<g>
        <rect x="679.6" y="369.3" class="st8" width="84" height="175.6" id="d5"></rect>
		<text transform="matrix(1 0 0 1 694.6908 389.0561)" class="st5">405</text>
	</g>
	<g>
        <rect x="1357.7" y="369.3" class="st8" width="86.9" height="175.6" id="d19"></rect>
		<text transform="matrix(1 0 0 1 1392.5159 389.0561)" class="st5">419</text>
	</g>
	<g>
        <rect x="763.5" y="369.3" class="st8" width="85" height="175.6" id="d9"></rect>
		<text transform="matrix(1 0 0 1 793.234 388.4881)" class="st5">409 </text>
	</g>
	<g>
		<rect x="848.5" y="369.3" class="st9" width="130" height="175.6" id="d11" style=""></rect>
		<text transform="matrix(1 0 0 1 910.7946 388.5793)" class="st5">411</text>
	</g>
	<g>
		<rect x="1073.5" y="369.3" class="st4" width="142" height="175.6" id="d15" style=""></rect>
		<text transform="matrix(1 0 0 1 1088.6444 388.4069)" class="st5">415</text>
	</g>
	<g>
        <rect x="977.6" y="369.3" class="st8" width="95.6" height="175.6" id="d13"></rect>
		<text transform="matrix(1 0 0 1 1014.289 388.7052)" class="st5">413</text>
	</g>
	<g>
		<rect x="1215.5" y="369.2" class="st4" width="142.2" height="175.8" id="d17" style=""></rect>
		<text transform="matrix(1 0 0 1 1269.8911 388.7577)" class="st5">417</text>
	</g>
	<g>
        <rect x="1641.3" y="369.4" class="st8" width="63.7" height="175.5" id="dwc"></rect>
		<text transform="matrix(1 0 0 1 1662.3041 388.4069)" class="st5">WC</text>
	</g>
	<g>
        <rect x="1705.7" y="369.4" class="st8" width="90" height="175.5" id="d25"></rect>
		<text transform="matrix(1 0 0 1 1739.1646 388.4626)" class="st5">425</text>
	</g>
	<g>
        <rect x="1444.6" y="369.4" class="st8" width="118.6" height="175.5" id="d21"></rect>
		<text transform="matrix(1.0258 0 0 1 1475.0887 388.4067)" class="st5">421</text>
	</g>
	<g>
		<rect x="1795.7" y="369.1" class="st4" width="141.8" height="175.8" id="d27" style=""></rect>
		<text transform="matrix(1 0 0 1 1847.7444 388.4626)" class="st5">427</text>
	</g>
	<g>
        <rect x="266.3" y="369.3" class="st8" width="79.6" height="176" id="d3"></rect>
		<text transform="matrix(1 0 0 1 294.5173 389.0561)" class="st5">403</text>
	</g>
	<g>
		<rect x="17.8" y="369.3" class="st9" width="248.7" height="175.7" id="d1" style=""></rect>
		<text transform="matrix(1 0 0 1 80.8723 386.7577)" class="st5">401</text>

	</g>
	<g>
        <rect x="266.6" y="14.8" class="st8" width="79" height="175.2" id="d6"></rect>
		<text transform="matrix(1 0 0 1 293.4146 179.8107)" class="st5">406</text>
	</g>
	<g>
		<rect x="124.1" y="14.8" class="st9" width="142.5" height="175.2" id="d4" style=""></rect>
		<text transform="matrix(1 0 0 1 173.4202 179.8107)" class="st5">404</text>
	</g>
	<g>
        <rect x="17.8" y="14.8" class="st8 stv" width="106.3" height="175.2" id="d2"></rect>
		<text transform="matrix(1 0 0 1 52.3374 179.5544)" class="st5">402</text>
	</g>
	<g>
        <rect x="1535.5" y="14.8" class="st8" width="88" height="175.2" id="d22"></rect>
		<text transform="matrix(1 0 0 1 1570.2509 179.9094)" class="st5">422</text>
	</g>
	<g>
        <rect x="1623.4" y="14.8" class="st8" width="83.4" height="175.2" id="d24"></rect>
		<text transform="matrix(1 0 0 1 1653.8105 179.9094)" class="st5">424</text>
	</g>
	<g>
		<rect x="1707.1" y="14.8" class="st4" width="139.6" height="175.2" id="d26" style=""></rect>
		<text transform="matrix(1 0 0 1 1784.094 179.9094)" class="st5">426</text>
	</g>
	<g>
        <rect x="1846.7" y="14.8" class="st8" width="90.8" height="175.2" id="d28"></rect>
		<text transform="matrix(1 0 0 1 1874.8068 179.9094)" class="st5">428</text>
	</g>
	<g>
		<rect x="1395.9" y="15.3" class="st9" width="139.8" height="174.6" id="d20" style=""></rect>
		<text transform="matrix(1 0 0 1 1452.2107 179.9094)" class="st5">420</text>
	</g>
	<polyline class="st0" points="1847.7,368.8 1760.7,368.8 1749.6,343 	"></polyline>
	<polyline class="st0" points="899.9,190 807.5,190 793,216.8 	"></polyline>
	<polyline class="st0" points="786.9,190 664,190 649.5,216.8 	"></polyline>
	<line class="st0" x1="1641.3" y1="369.4" x2="1662.3" y2="369.4"></line>
</g>
<g id="Слой_3">
	<text transform="matrix(1 0 0 1 58.7198 32.9189)" class="st11">34.1</text>
	<text transform="matrix(1 0 0 1 183.0973 32.9189)" class="st11">49.4</text>
	<text transform="matrix(1 0 0 1 283.5424 32.9189)" class="st11">15.3</text>
	<text transform="matrix(1 0 0 1 668.874 32.9189)" class="st11">49.2</text>
	<text transform="matrix(1 0 0 1 775.4066 32.9189)" class="st11">16.2</text>
	<text transform="matrix(1 0 0 1 887.6318 32.9189)" class="st11">49.0</text>
	<text transform="matrix(1 0 0 1 1012.0361 32.9189)" class="st11">33.4</text>
	<text transform="matrix(1 0 0 1 1114.9757 32.9189)" class="st11">17.9</text>
	<text transform="matrix(1 0 0 1 1202.5228 32.9189)" class="st11">16.3</text>
	<text transform="matrix(1 0 0 1 1313.2095 32.9189)" class="st11">49.7</text>
	<text transform="matrix(1 0 0 1 1453.3595 32.9189)" class="st11">50.0</text>&gt;
	<text transform="matrix(1 0 0 1 1567.3228 32.9189)" class="st11">16.9</text>
	<text transform="matrix(1 0 0 1 1653.0859 32.9189)" class="st11">16.4</text>
	<text transform="matrix(1 0 0 1 1764.5323 32.9189)" class="st11">49.6</text>
	<text transform="matrix(1 0 0 1 1879.8361 32.9189)" class="st11">17.1</text>
	<text transform="matrix(1 0 0 1 129.9475 535.6418)" class="st11">67.9</text>
	<text transform="matrix(1 0 0 1 291.1103 535.6418)" class="st11">15.6</text>
	<text transform="matrix(1 0 0 1 640.4382 535.6418)" class="st11">7.7</text>
	<text transform="matrix(1 0 0 1 712.5057 535.6418)" class="st11">16.1</text>
	<text transform="matrix(1 0 0 1 1390.6399 535.6418)" class="st11">16.1</text>
	<text transform="matrix(1 0 0 1 796.3103 535.6418)" class="st11">16.2</text>
	<text transform="matrix(1 0 0 1 899.6655 535.6418)" class="st11">47.5</text>
	<text transform="matrix(1 0 0 1 1012.0605 535.6418)" class="st11">19.2</text>
	<text transform="matrix(1 0 0 1 1128.0068 535.6418)" class="st11">49.8</text>
	<text transform="matrix(1 0 0 1 1271.8611 535.6418)" class="st11">49.9</text>
	<text transform="matrix(1.0258 0 0 1 1496.6063 535.6411)" class="st11">32.6</text>
	<text transform="matrix(1 0 0 1 1664.4796 535.6418)" class="st11">7.7</text>
	<text transform="matrix(1 0 0 1 1738.4773 535.6418)" class="st11">16.5</text>
	<text transform="matrix(1 0 0 1 1863.7059 535.6418)" class="st11">51.7</text>
</g>
<g id="Слой_4">
	<g>
		<circle class="st12" cx="1776.9" cy="101.4" r="19.1"></circle>
		<path class="st13" d="M1795.9,101.6C1795.9,101.6,1795.9,101.6,1795.9,101.6c-2.6-2.6-5.1-5.1-7.6-7.6c-0.2-0.2-0.4-0.3-0.7-0.3
			c-3.6,0-7.1,0-10.6,0c-3.6,0-7.1,0-10.7,0c-0.1,0-0.2,0-0.2,0c-0.3,0-0.5,0.2-0.5,0.5c0,0.1,0,0.2,0,0.3c0,4.6,0,9.2,0,13.9
			c0,0.3,0.1,0.5,0.3,0.7c1.6,1.6,3.2,3.2,4.9,4.9c2.1,2.1,4.3,4.3,6.4,6.5c0,0,0.1,0.1,0.1,0.1
			C1787.5,120.2,1795.8,111.9,1795.9,101.6z"></path>
		<g>
			<path class="st14" d="M1766.1,109.1h21.6c0.4,0,0.6-0.3,0.6-0.6V94.3c0-0.4-0.3-0.6-0.6-0.6h-21.6c-0.4,0-0.6,0.3-0.6,0.6v14.1
				C1765.4,108.8,1765.7,109.1,1766.1,109.1z M1766.7,106.7l6.8-6.8l7.9,7.9h-14.7V106.7z M1783.2,107.8l-2.7-2.7l2-2l4.3,4.3
				c0,0,0.1,0.1,0.1,0.1v0.3L1783.2,107.8L1783.2,107.8z M1787,94.9v10.8l-4-4c-0.3-0.3-0.7-0.3-0.9,0l-2.4,2.4l-5.6-5.6
				c-0.3-0.3-0.7-0.3-0.9,0l-6.4,6.4v-10H1787z"></path>
			<path class="st14" d="M1779.6,101c1.3,0,2.4-1.1,2.4-2.4s-1.1-2.4-2.4-2.4c-1.3,0-2.4,1.1-2.4,2.4S1778.3,101,1779.6,101z
				 M1779.6,97.4c0.6,0,1.1,0.5,1.1,1.1s-0.5,1.1-1.1,1.1c-0.6,0-1.1-0.5-1.1-1.1S1779,97.4,1779.6,97.4z"></path>
		</g>
	</g>
	<g>
		<circle class="st12" cx="1283.8" cy="460.7" r="19.1"></circle>
		<path class="st13" d="M1302.8,461C1302.8,461,1302.8,460.9,1302.8,461c-2.6-2.6-5.1-5.1-7.6-7.6c-0.2-0.2-0.4-0.3-0.7-0.3
			c-3.6,0-7.1,0-10.6,0c-3.6,0-7.1,0-10.7,0c-0.1,0-0.2,0-0.2,0c-0.3,0-0.5,0.2-0.5,0.5c0,0.1,0,0.2,0,0.3c0,4.6,0,9.2,0,13.9
			c0,0.3,0.1,0.5,0.3,0.7c1.6,1.6,3.2,3.2,4.9,4.9c2.1,2.1,4.3,4.3,6.4,6.5c0,0,0.1,0.1,0.1,0.1
			C1294.4,479.6,1302.7,471.3,1302.8,461z"></path>
		<g>
			<path class="st14" d="M1273,468.4h21.6c0.4,0,0.6-0.3,0.6-0.6v-14.1c0-0.4-0.3-0.6-0.6-0.6H1273c-0.4,0-0.6,0.3-0.6,0.6v14.1
				C1272.3,468.1,1272.6,468.4,1273,468.4z M1273.6,466.1l6.8-6.8l7.9,7.9h-14.7V466.1z M1290.1,467.1l-2.7-2.7l2-2l4.3,4.3
				c0,0,0.1,0.1,0.1,0.1v0.3L1290.1,467.1L1290.1,467.1z M1293.9,454.3v10.8l-4-4c-0.3-0.3-0.7-0.3-0.9,0l-2.4,2.4l-5.6-5.6
				c-0.3-0.3-0.7-0.3-0.9,0l-6.4,6.4v-10H1293.9z"></path>
			<path class="st14" d="M1286.5,460.3c1.3,0,2.4-1.1,2.4-2.4c0-1.3-1.1-2.4-2.4-2.4c-1.3,0-2.4,1.1-2.4,2.4
				C1284.1,459.2,1285.2,460.3,1286.5,460.3z M1286.5,456.8c0.6,0,1.1,0.5,1.1,1.1c0,0.6-0.5,1.1-1.1,1.1c-0.6,0-1.1-0.5-1.1-1.1
				C1285.4,457.3,1285.9,456.8,1286.5,456.8z"></path>
		</g>
	</g>
	<g>
		<circle class="st12" cx="1326.8" cy="101.4" r="19.1"></circle>
		<path class="st13" d="M1345.9,101.6C1345.9,101.6,1345.8,101.6,1345.9,101.6c-2.6-2.6-5.1-5.1-7.6-7.6c-0.2-0.2-0.4-0.3-0.7-0.3
			c-3.6,0-7.1,0-10.6,0c-3.6,0-7.1,0-10.7,0c-0.1,0-0.2,0-0.2,0c-0.3,0-0.5,0.2-0.5,0.5c0,0.1,0,0.2,0,0.3c0,4.6,0,9.2,0,13.9
			c0,0.3,0.1,0.5,0.3,0.7c1.6,1.6,3.2,3.2,4.9,4.9c2.1,2.1,4.3,4.3,6.4,6.5c0,0,0.1,0.1,0.1,0.1
			C1337.4,120.2,1345.7,111.9,1345.9,101.6z"></path>
		<g>
			<path class="st14" d="M1316,109.1h21.6c0.4,0,0.6-0.3,0.6-0.6V94.3c0-0.4-0.3-0.6-0.6-0.6H1316c-0.4,0-0.6,0.3-0.6,0.6v14.1
				C1315.4,108.8,1315.7,109.1,1316,109.1z M1316.7,106.7l6.8-6.8l7.9,7.9h-14.7V106.7z M1333.2,107.8l-2.7-2.7l2-2l4.3,4.3
				c0,0,0.1,0.1,0.1,0.1v0.3L1333.2,107.8L1333.2,107.8z M1337,94.9v10.8l-4-4c-0.3-0.3-0.7-0.3-0.9,0l-2.4,2.4l-5.6-5.6
				c-0.3-0.3-0.7-0.3-0.9,0l-6.4,6.4v-10H1337z"></path>
			<path class="st14" d="M1329.6,101c1.3,0,2.4-1.1,2.4-2.4s-1.1-2.4-2.4-2.4c-1.3,0-2.4,1.1-2.4,2.4S1328.2,101,1329.6,101z
				 M1329.6,97.4c0.6,0,1.1,0.5,1.1,1.1s-0.5,1.1-1.1,1.1c-0.6,0-1.1-0.5-1.1-1.1S1328.9,97.4,1329.6,97.4z"></path>
		</g>
	</g>
	<g>
		<circle class="st12" cx="897.5" cy="101.4" r="19.1"></circle>
		<path class="st13" d="M916.5,101.6C916.5,101.6,916.5,101.6,916.5,101.6c-2.6-2.6-5.1-5.1-7.6-7.6c-0.2-0.2-0.4-0.3-0.7-0.3
			c-3.6,0-7.1,0-10.6,0c-3.6,0-7.1,0-10.7,0c-0.1,0-0.2,0-0.2,0c-0.3,0-0.5,0.2-0.5,0.5c0,0.1,0,0.2,0,0.3c0,4.6,0,9.2,0,13.9
			c0,0.3,0.1,0.5,0.3,0.7c1.6,1.6,3.2,3.2,4.9,4.9c2.1,2.1,4.3,4.3,6.4,6.5c0,0,0.1,0.1,0.1,0.1
			C908.1,120.2,916.4,111.9,916.5,101.6z"></path>
		<g>
			<path class="st14" d="M886.7,109.1h21.6c0.4,0,0.6-0.3,0.6-0.6V94.3c0-0.4-0.3-0.6-0.6-0.6h-21.6c-0.4,0-0.6,0.3-0.6,0.6v14.1
				C886,108.8,886.3,109.1,886.7,109.1z M887.3,106.7l6.8-6.8l7.9,7.9h-14.7V106.7z M903.8,107.8l-2.7-2.7l2-2l4.3,4.3
				c0,0,0.1,0.1,0.1,0.1v0.3L903.8,107.8L903.8,107.8z M907.6,94.9v10.8l-4-4c-0.3-0.3-0.7-0.3-0.9,0l-2.4,2.4l-5.6-5.6
				c-0.3-0.3-0.7-0.3-0.9,0l-6.4,6.4v-10H907.6z"></path>
			<path class="st14" d="M900.2,101c1.3,0,2.4-1.1,2.4-2.4s-1.1-2.4-2.4-2.4c-1.3,0-2.4,1.1-2.4,2.4S898.9,101,900.2,101z
				 M900.2,97.4c0.6,0,1.1,0.5,1.1,1.1s-0.5,1.1-1.1,1.1c-0.6,0-1.1-0.5-1.1-1.1S899.6,97.4,900.2,97.4z"></path>
		</g>
	</g>
	<g>
		<circle class="st12" cx="1143" cy="463.5" r="19.1"></circle>
		<path class="st13" d="M1162.1,463.8C1162.1,463.7,1162,463.7,1162.1,463.8c-2.6-2.6-5.1-5.1-7.6-7.6c-0.2-0.2-0.4-0.3-0.7-0.3
			c-3.6,0-7.1,0-10.6,0c-3.6,0-7.1,0-10.7,0c-0.1,0-0.2,0-0.2,0c-0.3,0-0.5,0.2-0.5,0.5c0,0.1,0,0.2,0,0.3c0,4.6,0,9.2,0,13.9
			c0,0.3,0.1,0.5,0.3,0.7c1.6,1.6,3.2,3.2,4.9,4.9c2.1,2.1,4.3,4.3,6.4,6.5c0,0,0.1,0.1,0.1,0.1
			C1153.6,482.4,1161.9,474.1,1162.1,463.8z"></path>
		<g>
			<path class="st14" d="M1132.2,471.2h21.6c0.4,0,0.6-0.3,0.6-0.6v-14.1c0-0.4-0.3-0.6-0.6-0.6h-21.6c-0.4,0-0.6,0.3-0.6,0.6v14.1
				C1131.6,470.9,1131.9,471.2,1132.2,471.2z M1132.9,468.9l6.8-6.8l7.9,7.9h-14.7V468.9z M1149.4,469.9l-2.7-2.7l2-2l4.3,4.3
				c0,0,0.1,0.1,0.1,0.1v0.3L1149.4,469.9L1149.4,469.9z M1153.2,457.1v10.8l-4-4c-0.3-0.3-0.7-0.3-0.9,0l-2.4,2.4l-5.6-5.6
				c-0.3-0.3-0.7-0.3-0.9,0l-6.4,6.4v-10H1153.2z"></path>
			<path class="st14" d="M1145.8,463.1c1.3,0,2.4-1.1,2.4-2.4c0-1.3-1.1-2.4-2.4-2.4c-1.3,0-2.4,1.1-2.4,2.4
				C1143.3,462,1144.4,463.1,1145.8,463.1z M1145.8,459.6c0.6,0,1.1,0.5,1.1,1.1c0,0.6-0.5,1.1-1.1,1.1c-0.6,0-1.1-0.5-1.1-1.1
				C1144.6,460.1,1145.1,459.6,1145.8,459.6z"></path>
		</g>
	</g>
</g>
<g id="Слой_5_diagram">
    <circle class="st15" cx="1135.9" cy="684.4" r="15.8"></circle>
    <circle class="st16" cx="1135.9" cy="755.5" r="15.8"></circle>
    <circle class="st17" cx="1135.9" cy="826.6" r="15.8"></circle>
	<text transform="matrix(1 0 0 1 1176.4619 689.7963)" class="st3">Лабораторії</text>
	<text transform="matrix(1 0 0 1 1176.4619 760.292)" class="st3">Навчальні аудиторії</text>
	<text transform="matrix(1 0 0 1 1176.4619 833.7398)" class="st3">Інші</text>
	<path class="st18" d="M769.5,631.1v115.9l56.6,101.2c-16.7,9.4-36,14.7-56.6,14.7c-64,0-115.9-51.9-115.9-115.9
    S705.5,631.1,769.5,631.1z" id="d300"></path>
    <path class="st19" d="M885.5,747.1c0,4.3-0.2,8.5-0.7,12.6l-115.2-12.6V631.1C833.6,631.1,885.5,683,885.5,747.1z" id="d100"></path>
    <path class="st20" d="M884.7,760.5c-4.4,37.8-26.9,70-58.6,87.7l-56.6-101.2L884.7,760.5z" id="d200"></path>
	<text transform="matrix(1 0 0 1 824.865 692.3137)" class="st10" style="fill:#F5F5F5;  font-size:24px;">7</text>
	<text transform="matrix(1 0 0 1 838.6825 808.1795)" class="st10" style="fill:#F5F5F5;  font-size:24px;">4</text>
	<text transform="matrix(1 0 0 1 681.7933 788.3809)" class="st10" style="fill:#F5F5F5; font-size:24px;">15</text>
</g>
<g id="Слой_6">
    <polyline class="st1" points="52.9,602.9 56.6,611.4 60.5,611.4 60.5,573.3 38.1,573.3 38.1,611.4 41.9,611.4 45.6,602.9 		"></polyline>

    <rect x="38.1" y="621.1" class="st2" width="11" height="44.9"></rect>
    <text transform="matrix(1 0 0 1 68.8309 595.8264)" style="font-size: 15px; font-weight:500;" class="st3">Сходи</text>
    <text transform="matrix(1 0 0 1 68.8309 647.1559)" style="font-size: 15px; font-weight:500;" class="st3">Ліфт</text>
    <rect x="38.1" y="676.7" class="stv" width="19.7" height="46"></rect>
	<text transform="matrix(1 0 0 1 68.8309 705.2941)" style="font-size: 15px; font-weight:500;" class="st3">Відділ</text>
</g>
</svg>